<?xml version="1.0" standalone="no"?>
<!DOCTYPE svg PUBLIC "-//W3C//DTD SVG 20010904//EN"
 "http://www.w3.org/TR/2001/REC-SVG-20010904/DTD/svg10.dtd">
<svg version="1.0" xmlns="http://www.w3.org/2000/svg"
 width="51.000000pt" height="50.000000pt" viewBox="0 0 51.000000 50.000000"
 preserveAspectRatio="xMidYMid meet">
<metadata>
Created by potrace 1.10, written by Peter Selinger 2001-2011
</metadata>
<g transform="translate(0.000000,50.000000) scale(0.100000,-0.100000)"
fill="#000000" stroke="none">
<path d="M305 425 c-32 -42 -79 -95 -106 -118 -37 -33 -54 -57 -73 -110 -14
-37 -23 -67 -20 -67 4 0 1 -7 -6 -15 -15 -18 -7 -31 12 -19 7 5 18 9 24 10 6
1 38 12 72 24 46 17 70 33 97 66 20 24 74 71 120 104 47 34 85 68 85 76 0 17
-91 -49 -175 -126 l-50 -46 -41 42 -42 42 35 34 c60 57 155 178 140 178 -8 0
-40 -34 -72 -75z m-73 -195 c16 -16 28 -37 26 -46 -3 -16 -121 -67 -131 -57
-5 4 4 36 32 106 14 35 35 34 73 -3z"/>
<path d="M373 433 c-11 -16 -43 -53 -71 -84 l-51 -56 23 -22 c24 -22 24 -22
38 -2 8 11 43 43 79 71 35 29 66 54 68 56 5 5 -50 64 -59 64 -3 0 -15 -12 -27
-27z m51 -11 c15 -18 13 -21 -34 -61 -31 -26 -57 -41 -66 -37 -12 5 -5 18 32
61 26 30 49 55 49 55 1 0 9 -8 19 -18z m-111 -108 c3 -4 2 -15 -4 -26 -8 -15
-13 -17 -25 -7 -11 9 -12 15 -3 25 12 15 22 17 32 8z"/>
</g>
</svg>
